-
http:// www. Speed. Cd       
http:// www. Speed. Cd       the fast  and The Hottest Private Tracker on the net

Please Seed back to make the speed Faster!!!

and don't forget to visit      ...... www. Speed. Cd..........
-[img]http://img12.imageshack.us/img12/2716/cougarsinc2010.jpg[/img]

[color=blue][size=5][b]Cougars Inc 2011 BDRip XVID AC3 HQ Hive-CM8[/b][/size][/color]



[b]Thx Hive

CM8 Doing It Right The First Time :D

Why download a touched up rip of a rip BRrip
Get the real deal BDRip
Enjoy

Source Bluray

Video: 720x304 @bitrate 1900 2pass
Audio: DTS to AC3 5.1 @448
Sample: yes included[/b]


[url]http://www.imdb.com/title/tt1198075/[/url]


General
Complete name                    : Cougars.Inc.2011.BDRip.XVID.AC3.HQ.Hive-CM8.avi
Format                           : AVI
Format/Info                      : Audio Video Interleave
File size                        : 1.38 GiB
Duration                         : 1h 22mn
Overall bit rate                 : 2 404 Kbps
Writing application              : Nandub v1.0rc2
Writing library                  : Nandub build 1853/release

Video
ID                               : 0
Format                           : MPEG-4 Visual
Format profile                   : Advanced Simple@L5
Format settings, BVOP            : Yes
Format settings, QPel            : Yes
Format settings, GMC             : No warppoints
Format settings, Matrix          : Default (H.263)
Muxing mode                      : Packed bitstream
Codec ID                         : XVID
Codec ID/Hint                    : XviD
Duration                         : 1h 22mn
Bit rate                         : 1 946 Kbps
Width                            : 720 pixels
Height                           : 304 pixels
Display aspect ratio             : 2.35:1
Frame rate                       : 23.976 fps
Color space                      : YUV
Chroma subsampling               : 4:2:0
Bit depth                        : 8 bits
Scan type                        : Progressive
Bits/(Pixel*Frame)               : 0.371
Stream size                      : 1.12 GiB (81%)
Writing library                  : XviD 1.2.1 (UTC 2008-12-04)

Audio
ID                               : 1
Format                           : AC-3
Format/Info                      : Audio Coding 3
Mode extension                   : CM (complete main)
Codec ID                         : 2000
Duration                         : 1h 22mn
Bit rate mode                    : Constant
Bit rate                         : 448 Kbps
Channel(s)                       : 6 channels
Channel positions                : Front: L C R, Side: L R, LFE
Sampling rate                    : 48.0 KHz
Bit depth                        : 16 bits
Stream size                      : 263 MiB (19%)
Alignment                        : Split accross interleaves
Interleave, duration             : 42 ms (1.00 video frame)
Interleave, preload duration     : 500 ms



Sarah Hyland	 ... 	Courtney
Denise Richards	... 	Judy
James Belushi	... 	Dan Fox
Kyle Gallner	... 	Sam
Kathryn Morris	... 	Alison
Rebecca Mader	... 	Mary
Maeve Quinlan	... 	Kitty Lowell



Sam has been kicked out of every school across the country. When he learns 
that his mother can no longer afford to keep him in school he and his friends 
start their own escort service, Cougars, Inc., to help pay for his tuition. 
Through this hilarious new job Sam and his friends explore the generation of 
Cougars who are desperately trying to stay young and loving every lesson they are taught.


[img]http://img9.imageshack.us/img9/562/92965592.png[/img]
[img]http://img198.imageshack.us/img198/6050/cocoy.png[/img]
[img]http://img846.imageshack.us/img846/9292/cococo.png[/img]
[img]http://img222.imageshack.us/img222/2522/cocococo.png[/img]
[img]http://img560.imageshack.us/img560/5752/cococococo.png[/img]
[img]http://img29.imageshack.us/img29/8351/cocococococo.png[/img]
[img]http://img3.imageshack.us/img3/5665/cococococococo.png[/img]
[img]http://img683.imageshack.us/img683/3695/cocococococococo.png[/img]
[img]http://img706.imageshack.us/img706/1484/cocococococcoococo.png[/img]




Greetz

ViSiON,LUSi,,MAGNET,CLASSiFiED,THC,T0XiCiNK,IMAGiNE,WBZ,FLAWL3SS,NOVA
Vik,Rapeseed,D2U,SAFC,goldadvance,MEMORY100,KaN1vE,Unevano,Pinnz,Wayne,Mr Hive
and all P2P groups
Great Work Guys :D

CM8@hushmail.com